<?xml version="1.0" encoding="UTF-8"?>
<svg viewBox="0 0 240 69" height="20" fill="#F46036" class="header-unibui-logo" version="1.1" xmlns="http://www.w3.org/2000/svg" xmlns:xlink="http://www.w3.org/1999/xlink">
	<path d="M232.888713,15.0875248 C230.960792,15.0875248 229.282376,14.4815842 227.900198,13.2871287 C226.468911,12.0506931 225.742574,10.3112871 225.742574,8.11643564 C225.742574,6.10534653 226.476832,4.4229703 227.92396,3.11524752 C229.337822,1.83683168 231.008317,1.18811881 232.888713,1.18811881 C234.690693,1.18811881 236.311287,1.7750495 237.706139,2.93148515 C239.163564,4.14019802 239.902574,5.88435644 239.902574,8.11643564 C239.902574,10.2756436 239.188119,12.0047525 237.77901,13.2554455 C236.409505,14.4712871 234.764356,15.0875248 232.888713,15.0875248 Z M232.75802,68.9093069 C230.682772,68.9093069 228.966337,68.1481188 227.655446,66.6487129 C226.386535,65.1928713 225.742574,63.139802 225.742574,60.5465347 L225.742574,26.5647525 C225.742574,23.9326733 226.392871,21.8875248 227.673663,20.4871287 C228.982178,19.0566337 230.692277,18.3318812 232.75802,18.3318812 C234.813465,18.3318812 236.54099,19.0510891 237.891485,20.469703 C239.226139,21.8740594 239.902574,23.8075248 239.902574,26.2170297 L239.902574,60.5465347 C239.902574,63.2110891 239.229307,65.2871287 237.901782,66.7176238 C236.550495,68.1718812 234.819802,68.9093069 232.75802,68.9093069 Z" id="Fill-2"></path>
	<path d="M210.793663,66.7746547 C209.804356,65.677625 209.201584,64.2463378 208.993267,62.5069319 C208.110891,63.4273279 207.2,64.2534666 206.271683,64.9758428 C204.607525,66.2701002 202.761188,67.247526 200.78495,67.8811893 C198.822178,68.5093081 196.568713,68.827724 194.084752,68.827724 C191.040792,68.827724 188.264554,68.1837636 185.833663,66.9140606 C183.376634,65.6308923 181.446337,63.8328725 180.095842,61.5706943 C178.514851,58.8752487 177.714851,55.0201992 177.714851,50.1085161 L177.714851,26.5695062 C177.714851,23.90812 178.356436,21.8558428 179.62297,20.4697042 C180.915644,19.0542586 182.634455,18.3366349 184.729505,18.3366349 C186.849109,18.3366349 188.594059,19.0598032 189.916832,20.4855458 C191.215842,21.888318 191.874851,23.9350507 191.874851,26.5695062 L191.874851,45.5833675 C191.874851,48.2336646 192.097426,50.4760408 192.53703,52.2487141 C192.941782,53.8811893 193.66495,55.1643576 194.685941,56.0617834 C195.681584,56.9386151 197.036832,57.3647537 198.826931,57.3647537 C200.613069,57.3647537 202.25505,56.8451497 203.846337,55.7750507 C205.443168,54.7025755 206.574257,53.3433675 207.306139,51.6205953 C207.715644,50.587724 208.215446,47.8843576 208.215446,41.0146547 L208.215446,26.5695062 C208.215446,23.9334666 208.874455,21.8867339 210.173465,20.4855458 C211.493861,19.0598032 213.225347,18.3366349 215.317228,18.3366349 C217.412277,18.3366349 219.129505,19.0542586 220.423762,20.4697042 C221.689505,21.8566349 222.331881,23.9089121 222.331881,26.5695062 L222.331881,60.9861398 C222.331881,63.5302982 221.711683,65.5017834 220.489505,66.8443576 C219.240396,68.2170309 217.617426,68.9140606 215.665743,68.9140606 C213.711683,68.9140606 212.072079,68.1940606 210.793663,66.7746547 Z" id="Fill-1"></path>
	<path d="M159.219802,55.4225744 C156.84198,58.2796041 153.949307,59.729109 150.620198,59.729109 C146.77703,59.729109 143.622178,58.3120793 141.245149,55.5200001 C138.914059,52.7817823 137.731485,48.8665348 137.731485,43.8811882 C137.731485,40.518812 138.275644,37.5619803 139.349703,35.0938615 C140.445149,32.5742575 141.982574,30.6122773 143.92,29.2609902 C145.876436,27.898614 148.130693,27.2071288 150.620198,27.2071288 C153.065347,27.2071288 155.24198,27.9057427 157.088317,29.2823764 C158.905347,30.6376239 160.320792,32.5679209 161.295842,35.0178219 C162.244752,37.4075249 162.726337,40.2716833 162.726337,43.5326734 C162.726337,48.6273269 161.546139,52.6281189 159.219802,55.4225744 Z M164.737426,21.3996041 C161.592079,19.4209902 157.89703,18.4174259 153.753663,18.4174259 C150.157624,18.4174259 147.078812,19.0851486 144.602772,20.4007922 C142.864158,21.3243566 141.138218,22.5481189 139.447921,24.0546536 L139.447921,8.59405953 C139.447921,6.15445557 138.860198,4.21702982 137.701386,2.83405953 C136.491881,1.39564369 134.77703,0.665346656 132.606733,0.665346656 C130.507723,0.665346656 128.837228,1.43445557 127.643564,2.94970309 C126.514059,4.38257438 125.940594,6.45702982 125.940594,9.11603972 L125.940594,60.9805942 C125.940594,63.488317 126.54099,65.4455447 127.723564,66.799208 C128.945743,68.198812 130.588515,68.908515 132.606733,68.908515 C134.579802,68.908515 136.23604,68.209109 137.529505,66.828515 C138.50297,65.7900991 139.108119,64.3960397 139.340198,62.6708912 C139.840792,63.2071288 140.285149,63.6570298 140.677228,64.0277229 C141.523168,64.828515 142.55604,65.6142575 143.748119,66.3627724 C144.968713,67.1295051 146.456238,67.7536635 148.168713,68.2154457 C149.867723,68.6748516 151.70297,68.908515 153.622178,68.908515 C156.770693,68.908515 159.696634,68.2621783 162.322376,66.9893071 C164.947327,65.7140595 167.211881,63.8867328 169.050297,61.5564358 C170.870495,59.2514853 172.275644,56.4982179 173.226931,53.3726734 C174.169505,50.2772278 174.647129,46.8348516 174.647129,43.1413863 C174.647129,38.1259407 173.785347,33.7132674 172.08396,30.0237625 C170.35802,26.2827724 167.885941,23.3813863 164.737426,21.3996041 Z" id="Fill-5"></path>
    <path d="M115.66099,15.0875248 C113.733069,15.0875248 112.054653,14.4815842 110.672475,13.2871287 C109.241188,12.0506931 108.514851,10.3112871 108.514851,8.11643564 C108.514851,6.10455446 109.249109,4.42217822 110.69703,3.11524752 C112.110099,1.83683168 113.780594,1.18811881 115.66099,1.18811881 C117.462178,1.18811881 119.082772,1.7750495 120.478416,2.93069307 C121.935842,4.14019802 122.674851,5.88435644 122.674851,8.11643564 C122.674851,10.2748515 121.960396,12.0039604 120.551287,13.2554455 C119.18099,14.4712871 117.535842,15.0875248 115.66099,15.0875248 Z M110.427723,66.6487129 C109.158812,65.1928713 108.514851,63.139802 108.514851,60.5465347 L108.514851,26.5647525 C108.514851,23.9326733 109.165149,21.8875248 110.445941,20.4871287 C111.753663,19.0574257 113.463762,18.3318812 115.529505,18.3318812 C117.585743,18.3318812 119.313267,19.0510891 120.663762,20.469703 C121.998416,21.8740594 122.674851,23.8075248 122.674851,26.2170297 L122.674851,60.5465347 C122.674851,63.2110891 122.001584,65.2871287 120.674059,66.7176238 C119.322772,68.1718812 117.592079,68.9093069 115.529505,68.9093069 C113.454257,68.9093069 111.737822,68.1481188 110.427723,66.6487129 Z" id="Fill-3"></path>
	<path d="M92.6376238,66.6590111 C91.350495,65.2039616 90.6978218,63.1485161 90.6978218,60.5512883 L90.6978218,40.7540606 C90.6978218,37.0431695 90.1932673,34.198021 89.1968317,32.2986151 C88.3144554,30.6170309 86.5172277,29.7996052 83.7029703,29.7996052 C81.8138614,29.7996052 80.140198,30.3469319 78.5853465,31.4740606 C77.0392079,32.5956448 75.8851485,34.1663378 75.1572277,36.1441596 C74.630495,37.7512883 74.3572277,40.9687141 74.3572277,45.6704963 L74.3572277,60.5512883 C74.3572277,63.2435656 73.6910891,65.327526 72.3778218,66.7437636 C71.0407921,68.1837636 69.3029703,68.9140606 67.2118812,68.9140606 C65.1683168,68.9140606 63.4605941,68.1552487 62.1370297,66.6590111 C60.849901,65.2039616 60.1980198,63.1485161 60.1980198,60.5512883 L60.1980198,26.2217834 C60.1980198,23.6831695 60.7912871,21.7227735 61.9627723,20.3968329 C63.169901,19.0304963 64.8190099,18.3366349 66.8641584,18.3366349 C68.1077228,18.3366349 69.2530693,18.6384171 70.2685149,19.2324765 C71.2966337,19.8352487 72.1235644,20.737427 72.729505,21.9136646 C73.1184158,22.6708923 73.3805941,23.5318824 73.5144554,24.4895062 C75.1675248,22.7421794 76.9386139,21.3726745 78.8031683,20.4015854 C81.4368317,19.0320804 84.4910891,18.3366349 87.879604,18.3366349 C91.1928713,18.3366349 94.2027723,19.0732685 96.8285149,20.5235656 C99.4930693,21.9984171 101.511287,24.1132685 102.827723,26.8087141 C103.650693,28.3318824 104.205149,30.0419814 104.455446,31.8526745 C104.693861,33.5786151 104.814257,35.798021 104.814257,38.448318 L104.814257,60.5512883 C104.814257,63.2071299 104.167921,65.2784171 102.892673,66.7057438 C101.58495,68.1710903 99.8716832,68.9140606 97.799604,68.9140606 C95.6974257,68.9140606 93.960396,68.1544567 92.6376238,66.6590111 Z" id="Fill-6"></path>
	<path d="M50.4236011,18.3891073 C48.3352154,18.3891073 46.6074142,19.1114979 45.287643,20.5364982 C43.9915944,21.935388 43.3336857,23.9807105 43.3336857,26.6131237 L43.3336857,41.0427356 C43.3336857,47.9042586 42.8339281,50.6055086 42.4251074,51.6372689 C41.69524,53.3581883 40.5660409,54.7159343 38.9726682,55.787256 C37.3832493,56.8562041 35.7440128,57.3752492 33.9608587,57.3752492 C32.1737509,57.3752492 30.8215587,56.9495689 29.8259973,56.0736803 C28.8067132,55.1764286 28.0855441,53.8954316 27.6814679,52.2647122 C27.2425985,50.495528 27.0196054,48.2555635 27.0196054,45.6065346 L27.0196054,26.6059377 C27.0196054,23.9735245 26.3624874,21.9319551 25.0656481,20.5306916 C23.7838332,19.1484176 22.1011051,18.433224 20.0672815,18.3920802 C8.21860923,18.3920802 2.05756819,18.3920802 1.58415842,18.3920802 C0.874043755,18.3920802 0.396039604,18.9760349 0.396039604,19.580199 C0.396039604,20.1843631 0.872274307,20.7676915 1.58415842,20.7683178 C2.29604252,20.7689441 5.12645233,21.1289605 6.68336102,21.7188104 C8.24026972,22.3086604 12.884057,24.2560238 12.884057,30.3128686 L12.884057,50.1268161 C12.884057,55.0332164 13.6819295,58.8833284 15.2602778,61.576666 C16.609307,63.8364112 18.5363785,65.6324971 20.9885119,66.9142853 C23.4161318,68.1826226 26.1877304,68.8258904 29.2258137,68.8258904 C31.7056235,68.8258904 33.9561142,68.507817 35.9156067,67.8803738 C37.8877514,67.247392 39.7310029,66.2718087 41.3923805,64.9781521 C42.3199369,64.2565528 43.2285152,63.4313028 44.1109985,62.5111055 C44.3181765,64.2494318 44.9199416,65.6791795 45.9068047,66.7750293 C47.1838751,68.1929086 48.8199486,68.9121342 50.7707428,68.9121342 C52.7191648,68.9121342 54.3394232,68.2166454 55.5872356,66.8446573 C56.8073716,65.503527 57.4257426,63.5349536 57.4257426,60.9927403 L57.4257426,26.6131237 C57.4257426,23.9561825 56.7852305,21.9061126 55.5208122,20.5198824 C54.2295081,19.1059593 52.5151498,18.3891073 50.4236011,18.3891073 Z" id="Fill-4-short"></path>
</svg>